:version 1.10
:name ASF
:units
  mass 1
  length 1
  angle deg
:documentation
  ASF file generated by Kaydara
:root
  axis xyz
  order  tx ty tz rx ry rz
  position 0 0 0
  orientation 0 0 0
:bonedata
  begin
    id 1
    name RightUpLegDummy
    direction -1 2.30186e-007 8.31532e-007
    length 4.04083
    axis 0 0 0 xyz
  end
  begin
    id 2
    name RightUpLeg
    direction -0.000919234 -0.999985 0.00544864
    length 17.4221
    axis -3.80308 -0.00076134 -0.0523649 xyz
    dof rx ry rz
  end
  begin
    id 3
    name RightLeg
    direction -0.000919271 -0.999984 -0.00555045
    length 17.1239
    axis 4.00314 0.0181274 -0.183583 xyz
    dof rx ry rz
  end
  begin
    id 4
    name RightFoot
    direction -2.57843e-005 -4.04509e-007 1
    length 6.72091
    axis 8.18909e-005 -0.122003 -0.403008 xyz
    dof rx ry rz
  end
  begin
    id 5
    name RightToes
    direction 0.00116825 -0.014069 0.9999
    length 3.85082
    axis 0.000514414 0.540638 -0.356797 xyz
    dof rx ry rz
  end
  begin
    id 6
    name SpineDummy
    direction 0.0168869 0.966876 -0.254689
    length 6.99894
    axis 0 0 0 xyz
  end
  begin
    id 7
    name Spine
    direction -0.0132008 0.999903 0.00446247
    length 11.1999
    axis -0.00148109 0.00725429 0.756411 xyz
    dof rx ry rz
  end
  begin
    id 8
    name Spine1
    direction 0 0 0
    length 0
    axis -0.000934958 0.0245693 1.46543 xyz
    dof rx ry rz
  end
  begin
    id 9
    name HEadDummy
    direction -0.0255732 0.999672 0.00128215
    length 3.43865
    axis -0.000934958 0.0245693 1.46543 xyz
  end
  begin
    id 10
    name HEad
    direction -0.0472656 0.980052 0.19304
    length 5.12695
    axis -0.000934954 0.0245693 1.46543 xyz
    dof rx ry rz
  end
  begin
    id 11
    name LeftShoulder1Dummy
    direction 0.953098 0.301717 -0.023914
    length 3.68488
    axis -0.000934958 0.0245693 1.46543 xyz
  end
  begin
    id 12
    name LeftShoulder1
    direction 0.962466 0.271167 0.0112566
    length 3.13809
    axis -0.000934958 0.0245693 1.46543 xyz
    dof rx ry rz
  end
  begin
    id 13
    name LeftArm
    direction 0.999943 0.00455037 -0.00961766
    length 11.3419
    axis -23.1648 0.685459 1.22814 xyz
    dof rx ry rz
  end
  begin
    id 14
    name LeftForeArm
    direction 0.999332 0.0131969 0.0340885
    length 8.70632
    axis -9.90633 0.618216 0.0826942 xyz
    dof rx ry rz
  end
  begin
    id 15
    name LeftHand
    direction 0.994373 -0.0366703 0.0993905
    length 5.32135
    axis 0.00675269 0.680415 0.445699 xyz
    dof rx ry rz
  end
  begin
    id 16
    name RightShoulderDummy
    direction -0.967298 0.252589 -0.0230903
    length 3.68488
    axis -0.000934958 0.0245693 1.46543 xyz
  end
  begin
    id 17
    name RightShoulder
    direction -0.975062 0.221602 0.0120823
    length 3.13809
    axis 0.216257 0.0246515 1.45863 xyz
    dof rx ry rz
  end
  begin
    id 18
    name RightArm
    direction -0.99886 -0.00851186 -0.0469687
    length 10.3947
    axis -23.196 0.23503 -0.532632 xyz
    dof rx ry rz
  end
  begin
    id 19
    name RightForeArm
    direction -0.99909 0.00114866 0.0426317
    length 8.68355
    axis -9.91764 -0.134943 0.610517 xyz
    dof rx ry rz
  end
  begin
    id 20
    name RightHand
    direction -0.992888 -0.0489538 0.10852
    length 5.28593
    axis -0.00275396 -0.197403 0.246414 xyz
    dof rx ry rz
  end
  begin
    id 21
    name LeftUpLegDummy
    direction 1 -2.30186e-007 -8.31532e-007
    length 4.04083
    axis 0 0 0 xyz
  end
  begin
    id 22
    name LeftUpLeg
    direction -0.000920097 -1 2.79241e-006
    length 17.4221
    axis -3.48782 0.00143434 -0.0532288 xyz
    dof rx ry rz
  end
  begin
    id 23
    name LeftLeg
    direction -0.000920097 -1 2.7912e-006
    length 17.1239
    axis 3.68162 -0.00806512 -0.0529896 xyz
    dof rx ry rz
  end
  begin
    id 24
    name LeftFoot
    direction -2.57845e-005 -3.987e-007 1
    length 6.72091
    axis 3.02372e-005 -0.00147829 -0.214229 xyz
    dof rx ry rz
  end
  begin
    id 25
    name LeftToes
    direction 0.00813577 -0.00488255 0.999955
    length 3.85048
    axis 3.89895e-005 -0.0014783 -0.214229 xyz
    dof rx ry rz
  end
:hierarchy
  begin
    root RightUpLegDummy SpineDummy LeftUpLegDummy
    RightUpLegDummy RightUpLeg
    RightUpLeg RightLeg
    RightLeg RightFoot
    RightFoot RightToes
    SpineDummy Spine
    Spine Spine1
    Spine1 HEadDummy LeftShoulder1Dummy RightShoulderDummy
    HEadDummy HEad
    LeftShoulder1Dummy LeftShoulder1
    LeftShoulder1 LeftArm
    LeftArm LeftForeArm
    LeftForeArm LeftHand
    RightShoulderDummy RightShoulder
    RightShoulder RightArm
    RightArm RightForeArm
    RightForeArm RightHand
    LeftUpLegDummy LeftUpLeg
    LeftUpLeg LeftLeg
    LeftLeg LeftFoot
    LeftFoot LeftToes
  end

:SAMPLES-PER-SECOND 30
:FULLY-SPECIFIED
:DEGREES
1
root  -33.5031 34.6908 5.73209 -166.728 67.4077 -179.844
RightUpLeg  -11.3392 -12.8936 4.73831
RightLeg  5.14154 0.533613 0.0145876
RightFoot  1.95635 0.0141016 0.118786
RightToes  -18.5473 -0.0691166 -0.158242
Spine  -2.09911 -0.333755 0.338818
Spine1  -4.25862 -0.647502 1.27905
HEad  -67.9322 -11.8368 7.5348
LeftShoulder1  -1.94126e-019 -3.10601e-018 -2.51263e-017
LeftArm  -10.9631 21.4045 -83.8454
LeftForeArm  33.353 -16.944 -2.82059
LeftHand  -0.444877 -1.74385 7.41871
RightShoulder  -4.96962e-017 0 -2.36833e-017
RightArm  -28.7012 -25.8148 76.2172
RightForeArm  55.0062 14.7462 1.1764
RightHand  -0.38232 -0.756202 -9.54809
LeftUpLeg  -10.1995 8.64666 1.88243
LeftLeg  5.59968 15.1888 0.501892
LeftFoot  5.76073 -0.0785795 1.67411
LeftToes  -23.5464 1.89912e-006 4.45198e-008
2
root  -33.4242 34.6826 5.80051 -166.713 67.5427 -179.871
RightUpLeg  -11.3341 -12.8436 4.85762
RightLeg  5.19802 0.631207 0.0176989
RightFoot  1.80633 0.0141016 0.118786
RightToes  -18.3601 -0.0691166 -0.158242
Spine  -2.157 -0.285116 0.33882
Spine1  -4.37414 -0.553509 1.26109
HEad  -68.2421 -11.6926 7.40876
LeftShoulder1  -1.94126e-019 -3.10601e-018 -2.51263e-017
LeftArm  -10.8943 21.3351 -84.0804
LeftForeArm  33.0882 -17.5586 -2.90403
LeftHand  -0.446001 -1.79139 7.39139
RightShoulder  -4.96962e-017 0 -2.36833e-017
RightArm  -29.3879 -25.7611 76.099
RightForeArm  55.1258 14.3096 1.22983
RightHand  -0.345378 -1.0929 -9.25726
LeftUpLeg  -10.1652 8.61777 2.01723
LeftLeg  5.65149 15.3684 0.521431
LeftFoot  5.84756 -0.0812276 1.71528
LeftToes  -23.9117 1.89912e-006 4.45198e-008
3
root  -33.3373 34.6758 5.86699 -166.586 67.6295 -179.714
RightUpLeg  -11.2241 -12.6456 5.02302
RightLeg  5.21522 0.533606 0.0152809
RightFoot  1.64034 0.0141016 0.118786
RightToes  -17.908 -0.0691166 -0.158242
Spine  -2.19898 -0.26887 0.348425
Spine1  -4.45788 -0.523099 1.27648
HEad  -68.494 -11.4259 7.30651
LeftShoulder1  -1.94126e-019 -3.10601e-018 -2.51263e-017
LeftArm  -10.1218 21.4425 -84.2933
LeftForeArm  32.2686 -18.524 -3.02792
LeftHand  -0.450433 -1.46964 7.78785
RightShoulder  -4.96962e-017 0 -2.36833e-017
RightArm  -29.8037 -25.808 75.9944
RightForeArm  55.5044 14.158 1.24404
RightHand  -0.349407 -1.06821 -9.31582
LeftUpLeg  -10.0483 8.85451 2.22094
LeftLeg  5.65958 15.2411 0.519338
LeftFoot  5.83017 -0.0799161 1.69489
LeftToes  -23.9809 1.89912e-006 4.45198e-008
4
root  -33.2505 34.6711 5.93253 -166.567 67.68 -179.59
RightUpLeg  -10.9873 -12.57 5.16918
RightLeg  5.13087 0.509682 0.0138827
RightFoot  1.54775 0.0141016 0.118786
RightToes  -17.72 -0.0691166 -0.158242
Spine  -2.21607 -0.285341 0.357723
Spine1  -4.49275 -0.552502 1.29621
HEad  -68.6913 -11.1808 7.18568
LeftShoulder1  -1.94126e-019 -3.10601e-018 -2.51263e-017
LeftArm  -9.11978 21.5693 -84.3486
LeftForeArm  31.7191 -19.5035 -3.13958
LeftHand  -0.440375 -1.42149 7.66747
RightShoulder  -4.96962e-017 0 -2.36833e-017
RightArm  -29.7619 -25.8044 75.9189
RightForeArm  55.2946 14.2856 1.23038
RightHand  -0.344161 -1.13 -9.30055
LeftUpLeg  -9.81041 8.94075 2.43691
LeftLeg  5.57227 15.2223 0.495774
LeftFoot  5.89885 -0.0809788 1.71141
LeftToes  -24.1699 1.89912e-006 4.45198e-008
5
root  -33.1708 34.6688 5.99386 -166.643 67.6944 -179.566
RightUpLeg  -10.7369 -12.5359 5.27172
RightLeg  5.0131 0.501606 0.0126356
RightFoot  1.42435 0.0141016 0.118786
RightToes  -17.376 -0.0688538 -0.156377
Spine  -2.21084 -0.311768 0.361161
Spine1  -4.48363 -0.598645 1.28986
HEad  -68.8254 -11.0228 7.12852
LeftShoulder1  -1.94126e-019 -3.10601e-018 -2.51263e-017
LeftArm  -8.30291 21.6322 -84.3655
LeftForeArm  31.5006 -20.3138 -3.22363
LeftHand  -0.435646 -1.55163 7.45461
RightShoulder  -4.96962e-017 0 -2.36833e-017
RightArm  -29.4835 -25.7251 75.8888
RightForeArm  54.8365 14.5971 1.19801
RightHand  -0.347209 -1.03534 -9.19004
LeftUpLeg  -9.60167 8.92315 2.61057
LeftLeg  5.51829 15.2691 0.483044
LeftFoot  5.96181 -0.0824653 1.73452
LeftToes  -24.4037 1.89912e-006 4.45198e-008
6
root  -33.0958 34.6673 6.05342 -166.658 67.6928 -179.461
RightUpLeg  -10.4512 -12.5157 5.40583
RightLeg  4.83032 0.477051 0.0105245
RightFoot  1.35013 0.0141016 0.118786
RightToes  -17.0157 -0.0684721 -0.154511
Spine  -2.18869 -0.339791 0.362272
Spine1  -4.44119 -0.644429 1.31185
HEad  -68.978 -10.9218 7.06392
LeftShoulder1  -1.94126e-019 -3.10601e-018 -2.51263e-017
LeftArm  -7.40166 21.6949 -84.3289
LeftForeArm  31.1631 -20.9916 -3.28819
LeftHand  -0.434279 -1.57533 7.40826
RightShoulder  -4.96962e-017 0 -2.36833e-017
RightArm  -28.7194 -25.6407 75.8882
RightForeArm  53.7962 15.1665 1.15439
RightHand  -0.32547 -1.21094 -8.94944
LeftUpLeg  -9.37433 8.9469 2.81366
LeftLeg  5.43982 15.2535 0.461908
LeftFoot  5.99975 -0.0831485 1.74515
LeftToes  -24.5177 1.89912e-006 4.45198e-008
7
root  -33.038 34.6684 6.11538 -166.731 67.7466 -179.448
RightUpLeg  -10.1997 -12.3493 5.49126
RightLeg  4.61765 0.369903 0.00698377
RightFoot  1.33969 0.0141016 0.118786
RightToes  -17.0321 -0.0679891 -0.152541
Spine  -2.13595 -0.353701 0.362255
Spine1  -4.33699 -0.662404 1.31712
HEad  -69.1219 -10.822 6.97335
LeftShoulder1  -1.94126e-019 -3.10601e-018 -2.51263e-017
LeftArm  -6.94034 21.6229 -84.3212
LeftForeArm  31.0744 -21.3617 -3.32125
LeftHand  -0.430957 -1.50547 7.3634
RightShoulder  -4.96962e-017 0 -2.36833e-017
RightArm  -28.1969 -25.4357 75.9439
RightForeArm  53.4808 15.6634 1.12031
RightHand  -0.343361 -1.0132 -9.04327
LeftUpLeg  -9.19798 8.9494 2.96652
LeftLeg  5.3657 15.297 0.443633
LeftFoot  6.13369 -0.0859812 1.78919
LeftToes  -24.9006 1.89912e-006 4.45198e-008
8
root  -32.9946 34.6737 6.1816 -166.818 67.8023 -179.464
RightUpLeg  -9.97498 -12.222 5.57579
RightLeg  4.3791 0.32205 0.00483442
RightFoot  1.32737 0.0141016 0.118786
RightToes  -16.6813 -0.0674229 -0.150229
Spine  -2.06334 -0.369768 0.351722
Spine1  -4.19312 -0.683986 1.30201
HEad  -69.2263 -10.6618 6.93744
LeftShoulder1  -1.94126e-019 -3.10601e-018 -2.51263e-017
LeftArm  -6.77425 21.4729 -84.2673
LeftForeArm  31.1924 -21.4003 -3.316
LeftHand  -0.427363 -1.54742 7.36809
RightShoulder  -4.96962e-017 0 -2.36833e-017
RightArm  -27.6329 -25.1557 76.09
RightForeArm  52.9972 16.1878 1.11203
RightHand  -0.350984 -0.916733 -9.05719
LeftUpLeg  -9.07902 8.8946 3.10263
LeftLeg  5.33929 15.3923 0.439326
LeftFoot  6.25438 -0.0890272 1.83655
LeftToes  -25.0638 1.89912e-006 4.45198e-008
9
root  -32.9561 34.679 6.24999 -166.891 67.9002 -179.475
RightUpLeg  -9.76725 -12.106 5.66313
RightLeg  4.11973 0.304273 0.00320762
RightFoot  1.3831 0.0141016 0.118786
RightToes  -16.5644 -0.0667911 -0.147695
Spine  -1.98072 -0.372656 0.335331
Spine1  -4.02841 -0.680535 1.27586
HEad  -69.3232 -10.5492 6.86173
LeftShoulder1  -1.94126e-019 -3.10601e-018 -2.51263e-017
LeftArm  -6.66038 21.2597 -84.1608
LeftForeArm  31.2446 -21.1999 -3.29486
LeftHand  -0.426859 -1.54234 7.31652
RightShoulder  -4.96962e-017 0 -2.36833e-017
RightArm  -27.178 -24.8525 76.3079
RightForeArm  52.7389 16.6836 1.12936
RightHand  -0.357273 -0.804544 -9.0071
LeftUpLeg  -9.03074 8.97504 3.22685
LeftLeg  5.43349 15.4043 0.464687
LeftFoot  6.29819 -0.0901238 1.8536
LeftToes  -25.1969 1.89912e-006 4.45198e-008
10
root  -32.9315 34.6878 6.32273 -166.913 68.0396 -179.437
RightUpLeg  -9.60141 -12.0002 5.76911
RightLeg  3.88241 0.349138 0.00206902
RightFoot  1.48897 0.0137693 0.123534
RightToes  -16.2791 -0.0661118 -0.145371
Spine  -1.85202 -0.362651 0.32688
Spine1  -3.77174 -0.6524 1.26461
HEad  -69.6544 -10.3949 6.76453
LeftShoulder1  -1.94126e-019 -3.10601e-018 -2.51263e-017
LeftArm  -6.58816 20.9356 -84.0378
LeftForeArm  31.4321 -20.7864 -3.24426
LeftHand  -0.427844 -1.45458 7.42014
RightShoulder  -4.96962e-017 0 -2.36833e-017
RightArm  -26.6036 -24.4462 76.5376
RightForeArm  52.3 17.1678 1.19151
RightHand  -0.361872 -0.823893 -8.91042
LeftUpLeg  -9.0856 9.03409 3.35511
LeftLeg  5.70011 15.4837 0.538244
LeftFoot  6.29897 -0.0909825 1.86695
LeftToes  -25.331 1.89912e-006 4.45198e-008
11
root  -32.9121 34.6983 6.39354 -166.91 68.1972 -179.417
RightUpLeg  -9.49058 -11.9085 5.87615
RightLeg  3.64712 0.408551 0.000561601
RightFoot  1.59336 0.0134144 0.128606
RightToes  -15.9735 -0.0654026 -0.143686
Spine  -1.73766 -0.332105 0.320529
Spine1  -3.54244 -0.586178 1.25875
HEad  -69.9858 -10.2936 6.61906
LeftShoulder1  -1.94126e-019 -3.10601e-018 -2.51263e-017
LeftArm  -6.61626 20.5795 -83.9309
LeftForeArm  31.7677 -20.0844 -3.16499
LeftHand  -0.440159 -1.49875 7.58386
RightShoulder  -4.96962e-017 0 -2.36833e-017
RightArm  -26.0515 -24.1087 76.7683
RightForeArm  52.084 17.5727 1.26903
RightHand  -0.363151 -0.815057 -8.91321
LeftUpLeg  -9.18542 9.02454 3.46284
LeftLeg  5.96008 15.6541 0.614229
LeftFoot  6.3293 -0.0930593 1.89924
LeftToes  -25.3814 1.89912e-006 4.45198e-008
